<svg width="425" height="750" fill="none" xmlns="http://www.w3.org/2000/svg"><g clip-path="url(#clip0)"><path fill="#fff" d="M0 0h425v750H0z"/><path d="M304.46 531.995l109.879-98.118c6.444-5.754 16.661-1.18 16.661 7.459v222.705c0 8.736-10.414 13.272-16.811 7.322L304.085 568.948c-10.779-10.026-10.605-27.148.375-36.953z" fill="#474742"/><circle cx="259.5" cy="553.5" r="136.5" fill="#1D2226"/><circle cx="260" cy="553" r="95" stroke="#C4C4C4" stroke-width="10"/><g filter="url(#filter0_i)"><circle cx="260" cy="553" r="91" fill="#5A5D61"/></g><g filter="url(#filter1_d)"><circle cx="260" cy="553" r="56" fill="#C4C4C4"/></g><path d="M0 0h425v433L312.005 533.346c-11.184 9.932-11.202 27.396-.039 37.351L425 671.5V750H0V0z" fill="#FFFBE5"/><path fill="#FB0" d="M0 363h425v35H0z"/><path d="M.027 433h425l-39.44 35H.027v-35z" fill="#FF002C"/><path fill="#FF5A00" d="M0 398h425v35H0z"/><path d="M0 468h385.59l-39.41 35H0v-35z" fill="#AF00D0"/><path d="M-.05 503h346.23s-19.467 17.751-32.18 29.5c-2.077 1.919-6.094 5.5-6.094 5.5H-.051v-35z" fill="#6300BA"/><path fill="#0E1215" d="M20 680h50v50H20z"/><path d="M45.428 687.28c2.304 0 4.336.352 6.096 1.056 1.792.672 3.2 1.696 4.224 3.072 1.024 1.344 1.536 3.04 1.536 5.088 0 2.304-.608 4.144-1.824 5.52-1.184 1.344-2.864 2.192-5.04 2.544v.144c2.72.32 4.848 1.2 6.384 2.64 1.568 1.44 2.352 3.616 2.352 6.528 0 3.36-1.04 5.968-3.12 7.824-2.08 1.856-4.864 2.784-8.352 2.784-3.104 0-5.648-.496-7.632-1.488v12.528H32.9v-37.2c0-2.592.544-4.688 1.632-6.288 1.12-1.632 2.624-2.832 4.512-3.6 1.888-.768 4.016-1.152 6.384-1.152zm-.192 5.568c-.928 0-1.792.176-2.592.528-.8.352-1.44.976-1.92 1.872-.448.864-.672 2.112-.672 3.744v18.144c.8.512 1.744.912 2.832 1.2 1.088.288 2.08.432 2.976.432 1.984 0 3.456-.48 4.416-1.44.992-.992 1.488-2.352 1.488-4.08 0-1.984-.592-3.36-1.776-4.128-1.184-.768-2.624-1.152-4.32-1.152h-1.68v-5.664h1.248c1.696 0 2.928-.448 3.696-1.344.8-.928 1.2-2.128 1.2-3.6 0-1.504-.448-2.624-1.344-3.36-.896-.768-2.08-1.152-3.552-1.152z" fill="#FFFBE5"/></g><defs><filter id="filter0_i" x="169" y="462" width="182" height="182" filterUnits="userSpaceOnUse" color-interpolation-filters="sRGB"><feFlood flood-opacity="0" result="BackgroundImageFix"/><feBlend in="SourceGraphic" in2="BackgroundImageFix" result="shape"/><feColorMatrix in="SourceAlpha" values="0 0 0 0 0 0 0 0 0 0 0 0 0 0 0 0 0 0 127 0" result="hardAlpha"/><feOffset/><feGaussianBlur stdDeviation="5"/><feComposite in2="hardAlpha" operator="arithmetic" k2="-1" k3="1"/><feColorMatrix values="0 0 0 0 0 0 0 0 0 0 0 0 0 0 0 0 0 0 0.25 0"/><feBlend in2="shape" result="effect1_innerShadow"/></filter><filter id="filter1_d" x="194" y="487" width="132" height="132" filterUnits="userSpaceOnUse" color-interpolation-filters="sRGB"><feFlood flood-opacity="0" result="BackgroundImageFix"/><feColorMatrix in="SourceAlpha" values="0 0 0 0 0 0 0 0 0 0 0 0 0 0 0 0 0 0 127 0"/><feOffset/><feGaussianBlur stdDeviation="5"/><feColorMatrix values="0 0 0 0 0 0 0 0 0 0 0 0 0 0 0 0 0 0 0.25 0"/><feBlend in2="BackgroundImageFix" result="effect1_dropShadow"/><feBlend in="SourceGraphic" in2="effect1_dropShadow" result="shape"/></filter><clipPath id="clip0"><path fill="#fff" d="M0 0h425v750H0z"/></clipPath></defs></svg>